<mxfile host="app.diagrams.net" modified="2020-12-10T12:01:23.300Z" agent="5.0 (Windows NT 10.0; WOW64) AppleWebKit/537.36 (KHTML, like Gecko) Chrome/85.0.4183.102 Safari/537.36" etag="aJsPl_ZAyEw6dA_V_n6t" version="14.0.0" type="github">
  <diagram id="C5RBs43oDa-KdzZeNtuy" name="Page-1">
    <mxGraphModel dx="2062" dy="1122" grid="1" gridSize="10" guides="1" tooltips="1" connect="1" arrows="1" fold="1" page="1" pageScale="1" pageWidth="827" pageHeight="1169" math="0" shadow="0">
      <root>
        <mxCell id="WIyWlLk6GJQsqaUBKTNV-0" />
        <mxCell id="WIyWlLk6GJQsqaUBKTNV-1" parent="WIyWlLk6GJQsqaUBKTNV-0" />
        <mxCell id="Ulgkvtg_zn0DRPMf-2za-7" style="edgeStyle=orthogonalEdgeStyle;rounded=0;orthogonalLoop=1;jettySize=auto;html=1;exitX=0.5;exitY=1;exitDx=0;exitDy=0;entryX=0.5;entryY=0;entryDx=0;entryDy=0;" edge="1" parent="WIyWlLk6GJQsqaUBKTNV-1" source="WIyWlLk6GJQsqaUBKTNV-3" target="Ulgkvtg_zn0DRPMf-2za-1">
          <mxGeometry relative="1" as="geometry" />
        </mxCell>
        <mxCell id="WIyWlLk6GJQsqaUBKTNV-3" value="获取Actor天气数据TSimpleWeahterInfo" style="rounded=1;whiteSpace=wrap;html=1;fontSize=12;glass=0;strokeWidth=1;shadow=0;" parent="WIyWlLk6GJQsqaUBKTNV-1" vertex="1">
          <mxGeometry x="160" y="80" width="120" height="40" as="geometry" />
        </mxCell>
        <mxCell id="Ulgkvtg_zn0DRPMf-2za-28" style="edgeStyle=orthogonalEdgeStyle;rounded=0;orthogonalLoop=1;jettySize=auto;html=1;exitX=1;exitY=0.5;exitDx=0;exitDy=0;entryX=0;entryY=0.5;entryDx=0;entryDy=0;" edge="1" parent="WIyWlLk6GJQsqaUBKTNV-1" source="Ulgkvtg_zn0DRPMf-2za-1" target="Ulgkvtg_zn0DRPMf-2za-22">
          <mxGeometry relative="1" as="geometry" />
        </mxCell>
        <mxCell id="Ulgkvtg_zn0DRPMf-2za-1" value="获取天气数据MainlandAreaWeather" style="rounded=0;whiteSpace=wrap;html=1;fillColor=#fff2cc;strokeColor=#d6b656;" vertex="1" parent="WIyWlLk6GJQsqaUBKTNV-1">
          <mxGeometry x="160" y="160" width="120" height="40" as="geometry" />
        </mxCell>
        <mxCell id="Ulgkvtg_zn0DRPMf-2za-57" style="edgeStyle=orthogonalEdgeStyle;rounded=0;orthogonalLoop=1;jettySize=auto;html=1;exitX=0.5;exitY=1;exitDx=0;exitDy=0;entryX=0.5;entryY=0;entryDx=0;entryDy=0;" edge="1" parent="WIyWlLk6GJQsqaUBKTNV-1" source="Ulgkvtg_zn0DRPMf-2za-2" target="Ulgkvtg_zn0DRPMf-2za-37">
          <mxGeometry relative="1" as="geometry" />
        </mxCell>
        <mxCell id="Ulgkvtg_zn0DRPMf-2za-2" value="通过MainlandAreaWeather初始化TSimpleWeahterInfo" style="rounded=0;whiteSpace=wrap;html=1;" vertex="1" parent="WIyWlLk6GJQsqaUBKTNV-1">
          <mxGeometry x="160" y="340" width="120" height="60" as="geometry" />
        </mxCell>
        <mxCell id="Ulgkvtg_zn0DRPMf-2za-68" style="edgeStyle=orthogonalEdgeStyle;rounded=0;orthogonalLoop=1;jettySize=auto;html=1;exitX=0.5;exitY=1;exitDx=0;exitDy=0;entryX=0.5;entryY=0;entryDx=0;entryDy=0;" edge="1" parent="WIyWlLk6GJQsqaUBKTNV-1" source="Ulgkvtg_zn0DRPMf-2za-4" target="Ulgkvtg_zn0DRPMf-2za-15">
          <mxGeometry relative="1" as="geometry" />
        </mxCell>
        <mxCell id="Ulgkvtg_zn0DRPMf-2za-4" value="若有私人天气，修改天气类型和时刻类型" style="rounded=0;whiteSpace=wrap;html=1;" vertex="1" parent="WIyWlLk6GJQsqaUBKTNV-1">
          <mxGeometry x="345" y="644.5" width="120" height="60" as="geometry" />
        </mxCell>
        <mxCell id="Ulgkvtg_zn0DRPMf-2za-54" value="是" style="edgeStyle=orthogonalEdgeStyle;rounded=0;orthogonalLoop=1;jettySize=auto;html=1;exitX=1;exitY=0.5;exitDx=0;exitDy=0;entryX=0;entryY=0.5;entryDx=0;entryDy=0;" edge="1" parent="WIyWlLk6GJQsqaUBKTNV-1" source="Ulgkvtg_zn0DRPMf-2za-5" target="Ulgkvtg_zn0DRPMf-2za-4">
          <mxGeometry relative="1" as="geometry" />
        </mxCell>
        <mxCell id="Ulgkvtg_zn0DRPMf-2za-69" style="edgeStyle=orthogonalEdgeStyle;rounded=0;orthogonalLoop=1;jettySize=auto;html=1;exitX=0.5;exitY=1;exitDx=0;exitDy=0;entryX=0.5;entryY=0;entryDx=0;entryDy=0;" edge="1" parent="WIyWlLk6GJQsqaUBKTNV-1" source="Ulgkvtg_zn0DRPMf-2za-5" target="Ulgkvtg_zn0DRPMf-2za-15">
          <mxGeometry relative="1" as="geometry" />
        </mxCell>
        <mxCell id="Ulgkvtg_zn0DRPMf-2za-5" value="IsPlayer" style="rhombus;whiteSpace=wrap;html=1;" vertex="1" parent="WIyWlLk6GJQsqaUBKTNV-1">
          <mxGeometry x="140" y="649" width="160" height="51" as="geometry" />
        </mxCell>
        <mxCell id="Ulgkvtg_zn0DRPMf-2za-6" style="edgeStyle=orthogonalEdgeStyle;rounded=0;orthogonalLoop=1;jettySize=auto;html=1;exitX=0.5;exitY=1;exitDx=0;exitDy=0;" edge="1" parent="WIyWlLk6GJQsqaUBKTNV-1" source="Ulgkvtg_zn0DRPMf-2za-5" target="Ulgkvtg_zn0DRPMf-2za-5">
          <mxGeometry relative="1" as="geometry" />
        </mxCell>
        <mxCell id="Ulgkvtg_zn0DRPMf-2za-15" value="返回TSimpleWeahterInfo" style="ellipse;whiteSpace=wrap;html=1;" vertex="1" parent="WIyWlLk6GJQsqaUBKTNV-1">
          <mxGeometry x="160" y="769" width="120" height="60" as="geometry" />
        </mxCell>
        <mxCell id="Ulgkvtg_zn0DRPMf-2za-29" value="否" style="edgeStyle=orthogonalEdgeStyle;rounded=0;orthogonalLoop=1;jettySize=auto;html=1;exitX=1;exitY=0.5;exitDx=0;exitDy=0;entryX=0;entryY=0.5;entryDx=0;entryDy=0;" edge="1" parent="WIyWlLk6GJQsqaUBKTNV-1" source="Ulgkvtg_zn0DRPMf-2za-22" target="Ulgkvtg_zn0DRPMf-2za-24">
          <mxGeometry relative="1" as="geometry" />
        </mxCell>
        <mxCell id="Ulgkvtg_zn0DRPMf-2za-31" value="是" style="edgeStyle=orthogonalEdgeStyle;rounded=0;orthogonalLoop=1;jettySize=auto;html=1;exitX=0.5;exitY=1;exitDx=0;exitDy=0;entryX=0.5;entryY=0;entryDx=0;entryDy=0;" edge="1" parent="WIyWlLk6GJQsqaUBKTNV-1" source="Ulgkvtg_zn0DRPMf-2za-22" target="Ulgkvtg_zn0DRPMf-2za-23">
          <mxGeometry relative="1" as="geometry" />
        </mxCell>
        <mxCell id="Ulgkvtg_zn0DRPMf-2za-22" value="山洞中" style="rhombus;whiteSpace=wrap;html=1;" vertex="1" parent="WIyWlLk6GJQsqaUBKTNV-1">
          <mxGeometry x="320" y="155" width="80" height="50" as="geometry" />
        </mxCell>
        <mxCell id="Ulgkvtg_zn0DRPMf-2za-38" style="edgeStyle=orthogonalEdgeStyle;rounded=0;orthogonalLoop=1;jettySize=auto;html=1;exitX=0.5;exitY=1;exitDx=0;exitDy=0;entryX=0.5;entryY=0;entryDx=0;entryDy=0;" edge="1" parent="WIyWlLk6GJQsqaUBKTNV-1" source="Ulgkvtg_zn0DRPMf-2za-23" target="Ulgkvtg_zn0DRPMf-2za-2">
          <mxGeometry relative="1" as="geometry" />
        </mxCell>
        <mxCell id="Ulgkvtg_zn0DRPMf-2za-23" value="返回山洞共享天气&lt;br&gt;CWeatherMgr&lt;br&gt;GetWeatherByCaveIID" style="rounded=0;whiteSpace=wrap;html=1;" vertex="1" parent="WIyWlLk6GJQsqaUBKTNV-1">
          <mxGeometry x="290" y="230" width="140" height="60" as="geometry" />
        </mxCell>
        <mxCell id="Ulgkvtg_zn0DRPMf-2za-30" value="否" style="edgeStyle=orthogonalEdgeStyle;rounded=0;orthogonalLoop=1;jettySize=auto;html=1;exitX=1;exitY=0.5;exitDx=0;exitDy=0;" edge="1" parent="WIyWlLk6GJQsqaUBKTNV-1" source="Ulgkvtg_zn0DRPMf-2za-24" target="Ulgkvtg_zn0DRPMf-2za-27">
          <mxGeometry relative="1" as="geometry" />
        </mxCell>
        <mxCell id="Ulgkvtg_zn0DRPMf-2za-32" value="是" style="edgeStyle=orthogonalEdgeStyle;rounded=0;orthogonalLoop=1;jettySize=auto;html=1;exitX=0.5;exitY=1;exitDx=0;exitDy=0;" edge="1" parent="WIyWlLk6GJQsqaUBKTNV-1" source="Ulgkvtg_zn0DRPMf-2za-24" target="Ulgkvtg_zn0DRPMf-2za-25">
          <mxGeometry relative="1" as="geometry" />
        </mxCell>
        <mxCell id="Ulgkvtg_zn0DRPMf-2za-24" value="副本独立天气" style="rhombus;whiteSpace=wrap;html=1;" vertex="1" parent="WIyWlLk6GJQsqaUBKTNV-1">
          <mxGeometry x="480" y="155" width="90" height="50" as="geometry" />
        </mxCell>
        <mxCell id="Ulgkvtg_zn0DRPMf-2za-36" style="edgeStyle=orthogonalEdgeStyle;rounded=0;orthogonalLoop=1;jettySize=auto;html=1;exitX=0.5;exitY=1;exitDx=0;exitDy=0;entryX=0.5;entryY=0;entryDx=0;entryDy=0;" edge="1" parent="WIyWlLk6GJQsqaUBKTNV-1" source="Ulgkvtg_zn0DRPMf-2za-25" target="Ulgkvtg_zn0DRPMf-2za-2">
          <mxGeometry relative="1" as="geometry" />
        </mxCell>
        <mxCell id="Ulgkvtg_zn0DRPMf-2za-25" value="返回副本独立天气&lt;br&gt;CMainlandInst" style="rounded=0;whiteSpace=wrap;html=1;" vertex="1" parent="WIyWlLk6GJQsqaUBKTNV-1">
          <mxGeometry x="460" y="230" width="130" height="60" as="geometry" />
        </mxCell>
        <mxCell id="Ulgkvtg_zn0DRPMf-2za-35" style="edgeStyle=orthogonalEdgeStyle;rounded=0;orthogonalLoop=1;jettySize=auto;html=1;exitX=0.5;exitY=1;exitDx=0;exitDy=0;entryX=0.5;entryY=0;entryDx=0;entryDy=0;" edge="1" parent="WIyWlLk6GJQsqaUBKTNV-1" source="Ulgkvtg_zn0DRPMf-2za-27" target="Ulgkvtg_zn0DRPMf-2za-2">
          <mxGeometry relative="1" as="geometry" />
        </mxCell>
        <mxCell id="Ulgkvtg_zn0DRPMf-2za-27" value="返回副本或者区域共享天气&lt;br&gt;CWeatherMgr&lt;br&gt;GetWeatherByMainlandAreaID" style="rounded=0;whiteSpace=wrap;html=1;" vertex="1" parent="WIyWlLk6GJQsqaUBKTNV-1">
          <mxGeometry x="620" y="230" width="180" height="60" as="geometry" />
        </mxCell>
        <mxCell id="Ulgkvtg_zn0DRPMf-2za-58" value="是" style="edgeStyle=orthogonalEdgeStyle;rounded=0;orthogonalLoop=1;jettySize=auto;html=1;exitX=1;exitY=0.5;exitDx=0;exitDy=0;entryX=0;entryY=0.5;entryDx=0;entryDy=0;" edge="1" parent="WIyWlLk6GJQsqaUBKTNV-1" source="Ulgkvtg_zn0DRPMf-2za-37" target="Ulgkvtg_zn0DRPMf-2za-40">
          <mxGeometry relative="1" as="geometry" />
        </mxCell>
        <mxCell id="Ulgkvtg_zn0DRPMf-2za-63" style="edgeStyle=orthogonalEdgeStyle;rounded=0;orthogonalLoop=1;jettySize=auto;html=1;exitX=0.5;exitY=1;exitDx=0;exitDy=0;entryX=0.5;entryY=0;entryDx=0;entryDy=0;" edge="1" parent="WIyWlLk6GJQsqaUBKTNV-1" source="Ulgkvtg_zn0DRPMf-2za-37" target="Ulgkvtg_zn0DRPMf-2za-39">
          <mxGeometry relative="1" as="geometry" />
        </mxCell>
        <mxCell id="Ulgkvtg_zn0DRPMf-2za-37" value="副本是否有突变天气" style="rhombus;whiteSpace=wrap;html=1;" vertex="1" parent="WIyWlLk6GJQsqaUBKTNV-1">
          <mxGeometry x="145" y="435" width="150" height="50" as="geometry" />
        </mxCell>
        <mxCell id="Ulgkvtg_zn0DRPMf-2za-64" value="是" style="edgeStyle=orthogonalEdgeStyle;rounded=0;orthogonalLoop=1;jettySize=auto;html=1;exitX=1;exitY=0.5;exitDx=0;exitDy=0;entryX=0;entryY=0.5;entryDx=0;entryDy=0;" edge="1" parent="WIyWlLk6GJQsqaUBKTNV-1" source="Ulgkvtg_zn0DRPMf-2za-39" target="Ulgkvtg_zn0DRPMf-2za-41">
          <mxGeometry relative="1" as="geometry" />
        </mxCell>
        <mxCell id="Ulgkvtg_zn0DRPMf-2za-67" style="edgeStyle=orthogonalEdgeStyle;rounded=0;orthogonalLoop=1;jettySize=auto;html=1;exitX=0.5;exitY=1;exitDx=0;exitDy=0;entryX=0.5;entryY=0;entryDx=0;entryDy=0;" edge="1" parent="WIyWlLk6GJQsqaUBKTNV-1" source="Ulgkvtg_zn0DRPMf-2za-39" target="Ulgkvtg_zn0DRPMf-2za-5">
          <mxGeometry relative="1" as="geometry" />
        </mxCell>
        <mxCell id="Ulgkvtg_zn0DRPMf-2za-39" value="副本是否有活动流天气" style="rhombus;whiteSpace=wrap;html=1;" vertex="1" parent="WIyWlLk6GJQsqaUBKTNV-1">
          <mxGeometry x="140" y="549" width="160" height="50" as="geometry" />
        </mxCell>
        <mxCell id="Ulgkvtg_zn0DRPMf-2za-61" style="edgeStyle=orthogonalEdgeStyle;rounded=0;orthogonalLoop=1;jettySize=auto;html=1;exitX=0.5;exitY=1;exitDx=0;exitDy=0;entryX=0.5;entryY=0;entryDx=0;entryDy=0;" edge="1" parent="WIyWlLk6GJQsqaUBKTNV-1" source="Ulgkvtg_zn0DRPMf-2za-40" target="Ulgkvtg_zn0DRPMf-2za-39">
          <mxGeometry relative="1" as="geometry">
            <Array as="points">
              <mxPoint x="405" y="530" />
              <mxPoint x="220" y="530" />
            </Array>
          </mxGeometry>
        </mxCell>
        <mxCell id="Ulgkvtg_zn0DRPMf-2za-40" value="修改突变天气的&lt;br&gt;WeatherType&lt;br&gt;ClockResType" style="rounded=0;whiteSpace=wrap;html=1;" vertex="1" parent="WIyWlLk6GJQsqaUBKTNV-1">
          <mxGeometry x="345" y="435" width="120" height="50" as="geometry" />
        </mxCell>
        <mxCell id="Ulgkvtg_zn0DRPMf-2za-65" style="edgeStyle=orthogonalEdgeStyle;rounded=0;orthogonalLoop=1;jettySize=auto;html=1;exitX=0.5;exitY=1;exitDx=0;exitDy=0;entryX=0.5;entryY=0;entryDx=0;entryDy=0;" edge="1" parent="WIyWlLk6GJQsqaUBKTNV-1" source="Ulgkvtg_zn0DRPMf-2za-41" target="Ulgkvtg_zn0DRPMf-2za-5">
          <mxGeometry relative="1" as="geometry" />
        </mxCell>
        <mxCell id="Ulgkvtg_zn0DRPMf-2za-41" value="修改副本流天气的&lt;br&gt;WeatherType&lt;br&gt;ClockResType" style="rounded=0;whiteSpace=wrap;html=1;" vertex="1" parent="WIyWlLk6GJQsqaUBKTNV-1">
          <mxGeometry x="345" y="549" width="120" height="50" as="geometry" />
        </mxCell>
      </root>
    </mxGraphModel>
  </diagram>
</mxfile>
